<?xml version="1.0" encoding="utf-8"?>
<!-- Generator: Adobe Illustrator 28.0.0, SVG Export Plug-In . SVG Version: 6.00 Build 0)  -->
<svg version="1.1" id="Layer_1" xmlns="http://www.w3.org/2000/svg" xmlns:xlink="http://www.w3.org/1999/xlink" x="0px" y="0px"
	 viewBox="0 0 1920 1080" style="enable-background:new 0 0 1920 1080;" xml:space="preserve">
<style type="text/css">
	.st0{clip-path:url(#SVGID_00000141449340845091549660000006495431299675671946_);}
	.st1{fill:url(#SVGID_00000029014855135166571940000013290812724310163332_);}
	.st2{fill:none;}
	.st3{font-family:'TrashHand';}
	.st4{font-size:72px;}
	.st5{font-size:36px;}
	.st6{clip-path:url(#SVGID_00000057108128542779644340000008014184542843056264_);}
	.st7{clip-path:url(#SVGID_00000094600527096623147000000001147508540984037262_);}
	.st8{clip-path:url(#SVGID_00000021086787965204571260000010913268532468914567_);}
</style>
<g>
	<defs>
		<circle id="SVGID_1_" cx="960" cy="422" r="325"/>
	</defs>
	<clipPath id="SVGID_00000030453119537459648570000003493574020510827923_">
		<use xlink:href="#SVGID_1_"  style="overflow:visible;"/>
	</clipPath>
	<g style="clip-path:url(#SVGID_00000030453119537459648570000003493574020510827923_);">
		
			<linearGradient id="SVGID_00000178178166979780156990000016384190038482764947_" gradientUnits="userSpaceOnUse" x1="960" y1="751.8489" x2="960" y2="102.8489">
			<stop  offset="0" style="stop-color:#F22AFF"/>
			<stop  offset="1" style="stop-color:#FF9500"/>
		</linearGradient>
		<path style="fill:url(#SVGID_00000178178166979780156990000016384190038482764947_);" d="M960,746.5
			c-86.68,0-168.17-33.75-229.46-95.04S635.5,508.68,635.5,422c0-86.68,33.75-168.17,95.04-229.46S873.32,97.5,960,97.5
			c86.68,0,168.17,33.75,229.46,95.04S1284.5,335.32,1284.5,422c0,86.68-33.75,168.17-95.04,229.46S1046.68,746.5,960,746.5z"/>
		<path d="M960,98c43.74,0,86.17,8.57,126.12,25.46c38.58,16.32,73.23,39.68,102.99,69.44c29.76,29.76,53.12,64.41,69.44,102.99
			C1275.43,335.83,1284,378.26,1284,422s-8.57,86.17-25.46,126.12c-16.32,38.58-39.68,73.23-69.44,102.99
			c-29.76,29.76-64.41,53.12-102.99,69.44C1046.17,737.43,1003.74,746,960,746s-86.17-8.57-126.12-25.46
			c-38.58-16.32-73.23-39.68-102.99-69.44s-53.12-64.41-69.44-102.99C644.57,508.17,636,465.74,636,422s8.57-86.17,25.46-126.12
			c16.32-38.58,39.68-73.23,69.44-102.99s64.41-53.12,102.99-69.44C873.83,106.57,916.26,98,960,98 M960,97
			c-179.49,0-325,145.51-325,325s145.51,325,325,325s325-145.51,325-325S1139.49,97,960,97L960,97z"/>
	</g>
	<g style="clip-path:url(#SVGID_00000030453119537459648570000003493574020510827923_);">
		<g>
			<rect x="599" y="370" width="707" height="44"/>
		</g>
		<g>
			<rect x="599" y="442.25" width="707" height="38.75"/>
		</g>
		<g>
			<rect x="599" y="514.5" width="707" height="33.5"/>
		</g>
		<g>
			<rect x="599" y="586.75" width="707" height="28.25"/>
		</g>
		<g>
			<rect x="599" y="659" width="707" height="23"/>
		</g>
	</g>
</g>
<rect x="729.83" y="779.82" class="st2" width="504.17" height="47.18"/>
<text transform="matrix(1 0 0 1 729.8306 819.4893)" class="st3 st4">Worry Less Live More</text>
<rect x="922.32" y="864.41" class="st2" width="229.14" height="40.86"/>
<text transform="matrix(1 0 0 1 922.3242 884.2412)" class="st3 st5">Est. 2023</text>
<rect x="772.68" y="1040.08" class="st2" width="2.92" height="0"/>
<g>
	<g>
		<defs>
			<rect id="SVGID_00000106862271444265667480000010337859339968433597_" x="512" y="-57" width="940.75" height="1218"/>
		</defs>
		<clipPath id="SVGID_00000177456111172399183140000011244942267338987964_">
			<use xlink:href="#SVGID_00000106862271444265667480000010337859339968433597_"  style="overflow:visible;"/>
		</clipPath>
		<g style="clip-path:url(#SVGID_00000177456111172399183140000011244942267338987964_);">
			<defs>
				<rect id="SVGID_00000128480937509982123080000006215891732243201420_" x="512" y="-57" width="940.75" height="1218"/>
			</defs>
			<clipPath id="SVGID_00000003787618360802998650000007578289516028592311_">
				<use xlink:href="#SVGID_00000128480937509982123080000006215891732243201420_"  style="overflow:visible;"/>
			</clipPath>
		</g>
		<g style="clip-path:url(#SVGID_00000177456111172399183140000011244942267338987964_);">
			<defs>
				<rect id="SVGID_00000028325562853112741930000011846015642243263115_" x="621" y="54.37" width="729.85" height="729.85"/>
			</defs>
			<clipPath id="SVGID_00000178919985074175462220000016711594891556147639_">
				<use xlink:href="#SVGID_00000028325562853112741930000011846015642243263115_"  style="overflow:visible;"/>
			</clipPath>
			<g style="clip-path:url(#SVGID_00000178919985074175462220000016711594891556147639_);">
				<defs>
					<rect id="SVGID_00000083084928952216026940000012586768058416412585_" x="621" y="54.37" width="729.85" height="729.85"/>
				</defs>
				<clipPath id="SVGID_00000005968768646461533380000011363752257868705670_">
					<use xlink:href="#SVGID_00000083084928952216026940000012586768058416412585_"  style="overflow:visible;"/>
				</clipPath>
				<path style="clip-path:url(#SVGID_00000005968768646461533380000011363752257868705670_);" d="M1226.89,338.3
					c-12.78-39.1-44.34-115.05-98.45-135.35c-61.63-22.56-115.74,28.57-130.77,44.37c9.77-20.3,29.31-73.69-19.54-112.04
					c-31.56-24.81-99.2-18.8-137.53-12.78c-7.52,1.5-9.02,11.28-1.5,14.29c27.06,10.53,70.64,32.33,111.23,69.93
					c-30.81-23.31-73.65-39.1-122.5-12.03c-33.07,18.8-62.38,69.18-78.16,100.76c-3.76,6.77,4.51,13.54,10.52,9.78
					c24.8-16.54,68.39-41.36,121.75-50.38c-17.29,8.27-33.82,21.81-46.6,45.12c-18.04,32.33-16.53,81.96-12.78,113.54
					c0.75,7.52,11.27,9.02,14.28,2.26c9.77-23.31,28.56-57.9,60.12-87.98c-1.5,3.01-2.25,6.77-2.25,10.53
					c0,16.54,13.53,30.08,30.06,30.08c6.76,0,13.53-2.26,18.79-6.77C915.75,491.7,913.5,670.66,913.5,721.79
					c0,8.27,6.76,15.04,15.03,15.04h49.6c9.02,0,16.53-8.27,15.03-18.05c-16.53-90.23-30.81-225.59-3.01-358.68
					c6.23,10.68,18.78,17.15,32.66,14.41c13.93-2.75,23.7-15.4,23.7-29.6c0-2.17-0.02-3.66-0.75-5.86
					c32.32,46.62,36.83,89.48,46.6,111.29c3.01,6.02,11.27,6.02,13.53,0c11.27-26.32,29.31-81.96,7.52-135.35
					c-10.52-26.32-32.32-42.11-55.61-51.88c67.64,20.3,128.51,60.91,157.82,82.71C1220.87,351.08,1229.14,345.07,1226.89,338.3z"/>
			</g>
		</g>
	</g>
</g>
</svg>
