<?xml version="1.0" encoding="utf-8"?>
<!-- Generator: Adobe Illustrator 28.0.0, SVG Export Plug-In . SVG Version: 6.00 Build 0)  -->
<svg version="1.1" id="Layer_1" xmlns="http://www.w3.org/2000/svg" xmlns:xlink="http://www.w3.org/1999/xlink" x="0px" y="0px"
	 viewBox="0 0 1920 1080" style="enable-background:new 0 0 1920 1080;" xml:space="preserve">
<style type="text/css">
	.st0{clip-path:url(#SVGID_00000066491489402421844150000008301116570186057119_);}
	.st1{fill:url(#SVGID_00000085211628160927285050000007768204699883414404_);}
	.st2{fill:none;}
	.st3{font-family:'TrashHand';}
	.st4{font-size:72px;}
	.st5{font-size:36px;}
	.st6{clip-path:url(#SVGID_00000167361912314837433840000012876806423635817103_);}
	.st7{clip-path:url(#SVGID_00000162313605543863100150000010928081006876311970_);}
	.st8{clip-path:url(#SVGID_00000026855041885540834120000015321820233920799421_);}
</style>
<g>
	<defs>
		<circle id="SVGID_1_" cx="937.2" cy="410.32" r="325"/>
	</defs>
	<clipPath id="SVGID_00000034790981380020054170000001017012597206373013_">
		<use xlink:href="#SVGID_1_"  style="overflow:visible;"/>
	</clipPath>
	<g style="clip-path:url(#SVGID_00000034790981380020054170000001017012597206373013_);">
		
			<linearGradient id="SVGID_00000067215660271694061590000005393048458387483533_" gradientUnits="userSpaceOnUse" x1="937.196" y1="740.1702" x2="937.196" y2="91.1702">
			<stop  offset="0" style="stop-color:#006DFF"/>
			<stop  offset="0.7151" style="stop-color:#F8FF2A"/>
		</linearGradient>
		<path style="fill:url(#SVGID_00000067215660271694061590000005393048458387483533_);" d="M937.2,734.82
			c-86.68,0-168.17-33.75-229.46-95.04S612.7,497,612.7,410.32c0-86.68,33.75-168.17,95.04-229.46S850.52,85.82,937.2,85.82
			c86.68,0,168.17,33.75,229.46,95.04s95.04,142.78,95.04,229.46c0,86.68-33.75,168.17-95.04,229.46S1023.87,734.82,937.2,734.82z"
			/>
		<path d="M937.2,86.32c43.74,0,86.17,8.57,126.12,25.46c38.58,16.32,73.23,39.68,102.99,69.44
			c29.76,29.76,53.12,64.41,69.44,102.99c16.89,39.94,25.46,82.37,25.46,126.12s-8.57,86.17-25.46,126.12
			c-16.32,38.58-39.68,73.23-69.44,102.99c-29.76,29.76-64.41,53.12-102.99,69.44c-39.94,16.89-82.37,25.46-126.12,25.46
			s-86.17-8.57-126.12-25.46c-38.58-16.32-73.23-39.68-102.99-69.44s-53.12-64.41-69.44-102.99
			c-16.89-39.94-25.46-82.38-25.46-126.12s8.57-86.17,25.46-126.12c16.32-38.58,39.68-73.23,69.44-102.99s64.41-53.12,102.99-69.44
			C851.02,94.89,893.46,86.32,937.2,86.32 M937.2,85.32c-179.49,0-325,145.51-325,325s145.51,325,325,325s325-145.51,325-325
			S1116.69,85.32,937.2,85.32L937.2,85.32z"/>
	</g>
	<g style="clip-path:url(#SVGID_00000034790981380020054170000001017012597206373013_);">
		<g>
			<rect x="576.2" y="358.32" width="707" height="44"/>
		</g>
		<g>
			<rect x="576.2" y="430.57" width="707" height="38.75"/>
		</g>
		<g>
			<rect x="576.2" y="502.82" width="707" height="33.5"/>
		</g>
		<g>
			<rect x="576.2" y="575.07" width="707" height="28.25"/>
		</g>
		<g>
			<rect x="576.2" y="647.32" width="707" height="23"/>
		</g>
	</g>
</g>
<rect x="707.03" y="768.14" class="st2" width="504.17" height="47.18"/>
<text transform="matrix(1 0 0 1 707.0265 807.8107)" class="st3 st4">Worry Less Live More</text>
<rect x="899.52" y="852.73" class="st2" width="229.14" height="40.86"/>
<text transform="matrix(1 0 0 1 899.5201 872.5626)" class="st3 st5">Est. 2023</text>
<g>
	<g>
		<defs>
			<rect id="SVGID_00000042012499328808333670000012151967076933812902_" x="489.2" y="-68.68" width="940.75" height="1218"/>
		</defs>
		<clipPath id="SVGID_00000124149231703177103060000009705960966139344778_">
			<use xlink:href="#SVGID_00000042012499328808333670000012151967076933812902_"  style="overflow:visible;"/>
		</clipPath>
		<g style="clip-path:url(#SVGID_00000124149231703177103060000009705960966139344778_);">
			<defs>
				<rect id="SVGID_00000147942747042163227410000010659162864189577400_" x="489.2" y="-68.68" width="940.75" height="1218"/>
			</defs>
			<clipPath id="SVGID_00000160887057220497137240000009346462757711263933_">
				<use xlink:href="#SVGID_00000147942747042163227410000010659162864189577400_"  style="overflow:visible;"/>
			</clipPath>
		</g>
		<g style="clip-path:url(#SVGID_00000124149231703177103060000009705960966139344778_);">
			<defs>
				<rect id="SVGID_00000105395203729765314800000009641704318048712087_" x="598.2" y="42.69" width="729.85" height="729.85"/>
			</defs>
			<clipPath id="SVGID_00000134931882586440079720000004769188846322151586_">
				<use xlink:href="#SVGID_00000105395203729765314800000009641704318048712087_"  style="overflow:visible;"/>
			</clipPath>
			<g style="clip-path:url(#SVGID_00000134931882586440079720000004769188846322151586_);">
				<defs>
					<rect id="SVGID_00000048479878234845454720000013012954703006327450_" x="598.2" y="42.69" width="729.85" height="729.85"/>
				</defs>
				<clipPath id="SVGID_00000044170110136647557510000016156599551174529158_">
					<use xlink:href="#SVGID_00000048479878234845454720000013012954703006327450_"  style="overflow:visible;"/>
				</clipPath>
				<path style="clip-path:url(#SVGID_00000044170110136647557510000016156599551174529158_);" d="M1204.08,326.62
					c-12.78-39.1-44.34-115.05-98.45-135.35c-61.63-22.56-115.74,28.57-130.77,44.37c9.77-20.3,29.31-73.69-19.54-112.04
					c-31.56-24.81-99.2-18.8-137.53-12.78c-7.52,1.5-9.02,11.28-1.5,14.29c27.06,10.53,70.64,32.33,111.23,69.93
					c-30.81-23.31-73.65-39.1-122.5-12.03c-33.07,18.8-62.38,69.18-78.16,100.76c-3.76,6.77,4.51,13.54,10.52,9.78
					c24.8-16.54,68.39-41.36,121.75-50.38c-17.29,8.27-33.82,21.81-46.6,45.12c-18.04,32.33-16.53,81.96-12.78,113.54
					c0.75,7.52,11.27,9.02,14.28,2.26c9.77-23.31,28.56-57.9,60.12-87.98c-1.5,3.01-2.25,6.77-2.25,10.53
					c0,16.54,13.53,30.08,30.06,30.08c6.76,0,13.53-2.26,18.79-6.77c-27.81,130.09-30.06,309.05-30.06,360.18
					c0,8.27,6.76,15.04,15.03,15.04h49.6c9.02,0,16.53-8.27,15.03-18.05c-16.53-90.23-30.81-225.59-3.01-358.68
					c6.23,10.68,18.78,17.15,32.66,14.41c13.93-2.75,23.7-15.4,23.7-29.6c0-2.17-0.02-3.66-0.75-5.86
					c32.32,46.62,36.83,89.48,46.6,111.29c3.01,6.02,11.27,6.02,13.53,0c11.27-26.32,29.31-81.96,7.52-135.35
					c-10.52-26.32-32.32-42.11-55.61-51.88c67.64,20.3,128.51,60.91,157.82,82.71C1198.07,339.4,1206.34,333.39,1204.08,326.62z"/>
			</g>
		</g>
	</g>
</g>
</svg>
